<svg xmlns="http://www.w3.org/2000/svg" width="51" height="51" viewBox="0 0 51 51" fill="none">
                                    <path d="M24.4 0H26C32.2 0 38 2.6 43.6 7.9C47.5 12.6 49.6 16.9 50 20.7C50.3 22.5 50.4 23.7 50.4 24.1V26.2C50.4 29.6 49.3 33.4 47 37.8C43.7 43.2 39 47 32.8 49.1C29.7 49.9 27.3 50.3 25.5 50.3H24.9C18.5 50.3 12.5 47.7 7 42.5C2.3 37.3 0 31.3 0 24.5V24.2C0 24 0 23.8 0.1 23.6C0.1 23.5 0.1 23.4 0 23.4C0.6 18.5 1.9 14.6 3.9 11.6C7 6.8 11.7 3.2 18.2 1C20.6 0.4 22.7 0 24.4 0ZM21 16.1L21.1 20.7C21.1 20.8 21 21 20.7 21.2H18.2V26.4H20.7C20.8 26.4 21 26.6 21.1 26.9V39.7L21.2 40.6H26.5V26.7C26.5 26.5 26.6 26.4 26.8 26.4H31.1C31.3 26.4 31.5 24.8 31.9 21.5V21.2H26.8C26.6 21.2 26.5 21.1 26.5 20.9V17.3C26.5 15.8 27.4 14.9 29.2 14.8H32.2V10.3C32.2 10 31.2 9.9 29.1 9.9H28.3C24.9 9.9 22.6 11.2 21.6 13.8C21.4 14.3 21.2 15.1 21 16.1Z" fill="white"></path>
                                </svg>