<svg xmlns="http://www.w3.org/2000/svg" width="51" height="51" viewBox="0 0 25 25" fill="none">
                                    <path d="M11.6832 0H13.4653C15.3465 0 17.5248 0.796815 19.9505 2.39044C21.7822 3.83466 23.1188 5.47809 23.9109 7.37052C24.6535 9.16334 25 10.6574 25 11.9024V12.8984C25 15.6873 23.8614 18.4263 21.5842 21.1653C18.9604 23.755 15.8911 25 12.4257 25C8.06931 25 4.55445 22.9582 1.78218 18.9243C0.594063 16.7331 0 14.5916 0 12.4502C0 8.96414 1.43565 5.82669 4.25743 3.03785C7.0297 0.996018 9.45545 0 11.6832 0ZM5.89109 10.8068V14.6912C5.89109 16.7829 6.53465 18.2271 7.87129 18.9243C8.46535 19.2729 10.396 19.3725 13.6139 19.3227C16.0891 19.3227 17.5248 19.0737 17.8713 18.5259C18.7129 17.8287 19.1089 16.7331 19.1089 15.1892V10.2092C19.1089 8.26693 18.4158 6.97211 17.0297 6.3745L16.0891 6.0757L15.1485 6.02589H9.75247C7.82178 6.02589 6.53465 6.97211 5.89109 8.86454C5.94059 9.31275 5.89109 10.01 5.89109 10.8068ZM10.099 7.12151H15.2475C17.1287 7.12151 18.0693 8.11753 18.0693 10.1096V15.3884C17.8218 17.2311 17.0792 18.1275 15.7921 18.1275H13.6634C12.6733 18.1275 11.5842 18.1275 10.495 18.1773C8.66337 18.1773 7.57426 17.5797 7.22772 16.3845C7.12871 15.7371 7.07921 14.741 7.07921 13.3964V11.753C7.07921 9.26295 7.27723 8.06773 7.67327 8.06773C8.06931 7.42032 8.91089 7.12151 10.099 7.12151ZM9.15842 12.6992C9.15842 14.2928 10.0495 15.3884 11.8812 16.0359H13.3663C15.1485 15.3884 15.9901 14.243 15.9901 12.6494V12.5C15.9901 11.5538 15.5446 10.7072 14.604 9.91036C13.9604 9.46215 13.3168 9.26295 12.6238 9.26295H12.5743C11.0396 9.26295 10 10.0598 9.40594 11.6534C9.30693 11.6534 9.20792 12.0518 9.15842 12.6992ZM12.5743 10.3586H12.6238C13.6634 10.3586 14.4059 10.9064 14.7525 12.0518C14.802 12.1016 14.802 12.3008 14.802 12.5498C14.5545 14.0936 13.8119 14.8406 12.5743 14.8406C11.5842 14.8406 10.8911 14.3426 10.4455 13.3466C10.396 13.247 10.3465 12.998 10.297 12.5996C10.495 11.1554 11.2376 10.3586 12.5743 10.3586ZM15.3465 9.11354C15.5446 9.61155 15.8416 9.86056 16.1881 9.86056C16.5347 9.86056 16.7822 9.61155 16.9802 9.11354C16.8812 8.51593 16.5842 8.21713 16.0891 8.21713C15.5941 8.36653 15.3465 8.66534 15.3465 9.11354Z" fill="#8A8A8A"></path>
                                </svg>