<svg xmlns="http://www.w3.org/2000/svg" width="51" height="51" viewBox="0 0 51 51" fill="none">
                                    <path d="M24.7001 0H25.9001C31.2001 0 36.4001 2 41.6001 6.1C45.5001 10 47.9001 13.5 48.7001 16.6C49.3001 17.9 49.7001 19.4 49.9001 21.1C50.1001 22.8 50.2001 23.9 50.2001 24.4V25.7V26.7C49.8001 30.3 49.0001 33.3 47.8001 35.8C45.2001 41.1 41.2001 45.1 35.8001 47.8C31.9001 49.4 28.5001 50.2 25.4001 50.2H25.1001C18.9001 50.2 13.2001 47.9 8.00009 43.4C4.80009 40 2.70009 37.1 1.90009 34.5C1.00009 32.5 0.400098 30 0.100098 26.9V23.8C0.100098 18.7 2.20009 13.5 6.50009 8.2C12.2001 2.7 18.2001 0 24.7001 0ZM15.2001 16V16.9C15.5001 18.4 16.4001 19.1 18.0001 19.1C19.3001 19.1 20.2001 18.4 20.7001 16.9V16.8C20.7001 15.3 19.8001 14.4 17.9001 14.1C16.7001 14.1 15.8001 14.7 15.2001 16ZM15.5001 21.4V35.2C15.5001 35.4 15.6001 35.5 15.8001 35.5H20.0001C20.2001 35.5 20.3001 35.4 20.3001 35.2V21.7L20.0001 21.1H15.8001C15.6001 21.1 15.5001 21.2 15.5001 21.4ZM28.0001 22.6H27.7001V21.1H23.0001V35.2C23.0001 35.4 23.1001 35.5 23.3001 35.5H27.5001C27.7001 35.5 27.8001 35.4 27.8001 35.2V27.6C28.0001 25.5 28.9001 24.5 30.3001 24.5C32.0001 24.5 32.8001 25.5 32.8001 27.6V35.2C32.8001 35.4 32.9001 35.5 33.1001 35.5H37.6001V26.1C37.6001 24.4 36.8001 22.9 35.2001 21.5C34.0001 21 33.3001 20.8 33.0001 20.8H31.5001C30.2001 20.8 29.1001 21.4 28.0001 22.6Z" fill="white"></path>
                                </svg>