<svg xmlns="http://www.w3.org/2000/svg" width="51" height="51" viewBox="0 0 51 51" fill="none">
                                    <path d="M25.0999 0H26.0999C31.6999 0 37.0999 2.1 42.2999 6.4C47.7999 12 50.5999 17.9 50.5999 24.1V26.5C50.5999 30.1 49.1999 34.3 46.3999 39.1C42.9999 44 38.2999 47.4 32.3999 49.2C29.6999 49.9 27.3999 50.2 25.5999 50.2H25.4999C18.6999 50.2 12.5999 47.5 7.1999 42.2C2.5999 37 0.399902 31.3 0.399902 25.1C0.399902 18.5 2.9999 12.4 8.0999 7C13.4999 2.3 19.1999 0 25.0999 0ZM26.5999 20.8V22C26.5999 22.2 26.4999 22.3 26.2999 22.3C23.1999 21.9 20.4999 20.8 18.2999 19L16.1999 17.1H15.9999C15.9999 17.3 15.7999 17.7 15.3999 18.3V20.1C15.4999 21.1 16.1999 22.2 17.4999 23.5V23.6C16.7999 23.6 16.0999 23.4 15.3999 23V23.1C15.3999 25 16.5999 26.6 19.0999 28L18.7999 28.1H18.0999L17.2999 28V28.3C18.3999 30.4 19.8999 31.4 21.5999 31.4V32C19.5999 33.2 17.6999 33.8 15.7999 33.8H14.9999V34C17.7999 35.3 20.1999 35.9 22.2999 35.9C26.5999 35.9 30.2999 34.2 33.2999 30.7C35.4999 27.7 36.5999 24.8 36.5999 22.1V21.1C38.1999 19.6 38.9999 18.7 38.9999 18.6V18.5C38.3999 18.8 37.5999 19 36.5999 19.3L36.4999 19C37.3999 18.5 38.0999 17.7 38.5999 16.8V16.7H38.4999C36.9999 17.4 36.0999 17.7 35.7999 17.7H35.3999C34.2999 16.8 33.2999 16.3 32.3999 16.2H30.9999C29.2999 16.2 27.9999 17.1 26.9999 19C26.6999 19.4 26.5999 20 26.5999 20.8Z" fill="white"></path>
                                </svg>