<svg xmlns="http://www.w3.org/2000/svg" width="51" height="51" viewBox="0 0 51 51" fill="none">
                                    <path d="M25.8998 0C34.0998 0 40.8998 3.6 46.3998 10.7C49.4998 15.4 50.9998 20.2 50.9998 25.3C50.9998 31.1 48.8998 36.6 44.5998 41.8C39.1998 47.4 32.9998 50.3 25.8998 50.3C17.7998 50.3 11.0998 46.8 5.5998 39.9C3.8998 37.6 2.4998 34.6 1.3998 30.8L0.799805 26.6V24C0.999805 20.3 2.0998 16.5 4.0998 12.7C9.5998 4.3 16.8998 0 25.8998 0ZM24.7998 15.5C16.4998 15.5 12.2998 16.1 12.2998 17.4C11.6998 17.8 11.2998 20.5 11.0998 25.4V25.5C11.0998 31.1 11.7998 34.3 13.1998 35C14.2998 35.5 16.6998 35.7 20.5998 35.7H33.9998C37.0998 35.7 38.8998 35 39.4998 33.6C40.0998 32.1 40.3998 29.7 40.3998 26.5V24.4C40.3998 19.8 39.7998 17 38.5998 16.2C37.7998 15.8 33.0998 15.5 24.7998 15.5ZM22.8998 21.6H22.9998C27.6998 24 30.0998 25.4 30.2998 25.6L23.2998 29.5H22.7998V21.6H22.8998Z" fill="white"></path>
                                </svg>